<svg width='40px' height='40px' viewBox="0 0 14 14" fill="none" xmlns="http://www.w3.org/2000/svg">
    <path
    d="M13.4842 11.8609L10.8881 9.26479C10.771 9.14762 10.6121 9.08252 10.4455 9.08252H10.021C10.7397 8.16334 11.1667 7.0072 11.1667 5.74951C11.1667 2.75762 8.74251 0.333374 5.75061 0.333374C2.75871 0.333374 0.334473 2.75762 0.334473 5.74951C0.334473 8.74141 2.75871 11.1657 5.75061 11.1657C7.0083 11.1657 8.16444 10.7386 9.08362 10.0199V10.4444C9.08362 10.611 9.14872 10.7699 9.26589 10.887L11.862 13.4831C12.1068 13.7279 12.5026 13.7279 12.7447 13.4831L13.4816 12.7462C13.7264 12.5015 13.7264 12.1057 13.4842 11.8609ZM5.75061 9.08252C3.90964 9.08252 2.4176 7.59308 2.4176 5.74951C2.4176 3.90855 3.90704 2.4165 5.75061 2.4165C7.59158 2.4165 9.08362 3.90594 9.08362 5.74951C9.08362 7.59048 7.59418 9.08252 5.75061 9.08252Z"
    fill="var(--give-campaign-primary, #28C77B)"/>
</svg>
