<svg width="14" height="14" viewBox="0 0 14 14" fill="none" xmlns="http://www.w3.org/2000/svg">
    <path part='give-card-icon-path'
    fill-rule="evenodd"
    clip-rule="evenodd"
    d="M10.5184 7.67819C10.5987 7.36619 10.9167 7.17837 11.2287 7.25867C12.4866 7.58242 13.4167 8.72357 13.4167 10.0834V11.2501C13.4167 11.5722 13.1555 11.8334 12.8333 11.8334C12.5112 11.8334 12.25 11.5722 12.25 11.2501V10.0834C12.25 9.26878 11.6928 8.58281 10.9379 8.38851C10.6259 8.30821 10.4381 7.99019 10.5184 7.67819Z"
    fill="#989898"
    />
    <path part='give-card-icon-path'
    fill-rule="evenodd"
    clip-rule="evenodd"
    d="M8.50094 0.700815C8.62182 0.402187 8.9619 0.258095 9.26053 0.378977C10.3284 0.81122 11.0833 1.85845 11.0833 3.08341C11.0833 4.30838 10.3284 5.35561 9.26053 5.78785C8.9619 5.90873 8.62182 5.76464 8.50094 5.46601C8.38006 5.16739 8.52415 4.82731 8.82278 4.70642C9.46519 4.44638 9.91666 3.81692 9.91666 3.08341C9.91666 2.34991 9.46519 1.72045 8.82278 1.4604C8.52415 1.33952 8.38006 0.999443 8.50094 0.700815Z"
    fill="#989898"
    />
    <path part='give-card-icon-path'
    fill-rule="evenodd"
    clip-rule="evenodd"
    d="M4.18771 7.16673C5.09034 7.16703 5.99298 7.16703 6.89561 7.16673C7.5318 7.16652 7.96592 7.16638 8.33821 7.26613C9.34473 7.53583 10.1309 8.32201 10.4006 9.32853C10.5349 9.82979 10.496 10.3655 10.5001 10.8791C10.5006 10.9415 10.5016 11.0676 10.4702 11.1849C10.3893 11.4868 10.1534 11.7227 9.85146 11.8036C9.7342 11.835 9.60807 11.834 9.54571 11.8335C6.87696 11.8122 4.20636 11.8122 1.53761 11.8335C1.47524 11.834 1.34912 11.835 1.23186 11.8036C0.929902 11.7227 0.694048 11.4868 0.613139 11.1849C0.58172 11.0676 0.582725 10.9415 0.583222 10.8791C0.587307 10.3668 0.548607 9.82899 0.682707 9.32853C0.952403 8.32201 1.73858 7.53583 2.7451 7.26613C3.11739 7.16638 3.55151 7.16652 4.18771 7.16673Z"
    fill="#989898"
    />
    <path part='give-card-icon-path'
    fill-rule="evenodd"
    clip-rule="evenodd"
    d="M2.62499 3.08341C2.62499 1.47258 3.93083 0.166748 5.54166 0.166748C7.15249 0.166748 8.45832 1.47258 8.45832 3.08341C8.45832 4.69425 7.15249 6.00008 5.54166 6.00008C3.93083 6.00008 2.62499 4.69425 2.62499 3.08341Z"
    fill="#989898"
    />
</svg>
