<svg width="14" height="14" viewBox="0 0 14 14" fill="none" xmlns="http://www.w3.org/2000/svg">
    <path part='give-card-icon-path'
    d="M6 5.41675C6.77355 5.41675 7.51541 5.72404 8.06239 6.27102C8.60937 6.818 8.91666 7.55987 8.91666 8.33341V11.8334H3.08333V8.33341C3.08333 7.55987 3.39062 6.818 3.9376 6.27102C4.48458 5.72404 5.22645 5.41675 6 5.41675ZM2.08466 7.17025C1.99183 7.48337 1.93699 7.80653 1.92133 8.13275L1.91666 8.33341V11.8334H0.166664V9.20841C0.166549 8.70533 0.352181 8.21992 0.687951 7.84529C1.02372 7.47065 1.48599 7.23318 1.98608 7.17841L2.08525 7.17025H2.08466ZM9.91533 7.17025C10.4344 7.20189 10.9219 7.43039 11.2783 7.80913C11.6348 8.18788 11.8333 8.68834 11.8333 9.20841V11.8334H10.0833V8.33341C10.0833 7.92916 10.025 7.53891 9.91533 7.17025ZM2.20833 3.66675C2.5951 3.66675 2.96604 3.82039 3.23953 4.09388C3.51302 4.36737 3.66666 4.73831 3.66666 5.12508C3.66666 5.51186 3.51302 5.88279 3.23953 6.15628C2.96604 6.42977 2.5951 6.58341 2.20833 6.58341C1.82156 6.58341 1.45062 6.42977 1.17713 6.15628C0.903643 5.88279 0.749997 5.51186 0.749997 5.12508C0.749997 4.73831 0.903643 4.36737 1.17713 4.09388C1.45062 3.82039 1.82156 3.66675 2.20833 3.66675ZM9.79166 3.66675C10.1784 3.66675 10.5494 3.82039 10.8229 4.09388C11.0964 4.36737 11.25 4.73831 11.25 5.12508C11.25 5.51186 11.0964 5.88279 10.8229 6.15628C10.5494 6.42977 10.1784 6.58341 9.79166 6.58341C9.40489 6.58341 9.03396 6.42977 8.76047 6.15628C8.48698 5.88279 8.33333 5.51186 8.33333 5.12508C8.33333 4.73831 8.48698 4.36737 8.76047 4.09388C9.03396 3.82039 9.40489 3.66675 9.79166 3.66675ZM6 0.166748C6.61884 0.166748 7.21233 0.412581 7.64991 0.850166C8.0875 1.28775 8.33333 1.88124 8.33333 2.50008C8.33333 3.11892 8.0875 3.71241 7.64991 4.15C7.21233 4.58758 6.61884 4.83341 6 4.83341C5.38116 4.83341 4.78767 4.58758 4.35008 4.15C3.9125 3.71241 3.66666 3.11892 3.66666 2.50008C3.66666 1.88124 3.9125 1.28775 4.35008 0.850166C4.78767 0.412581 5.38116 0.166748 6 0.166748Z"
    fill="#989898"
    />
</svg>
